<?xml version="1.0" standalone="no"?>
<!DOCTYPE svg PUBLIC "-//W3C//DTD SVG 20010904//EN"
 "http://www.w3.org/TR/2001/REC-SVG-20010904/DTD/svg10.dtd">
<svg version="1.0" xmlns="http://www.w3.org/2000/svg"
 width="768.000000pt" height="133.000000pt" viewBox="0 0 768.000000 133.000000"
 preserveAspectRatio="xMidYMid meet">

<g transform="translate(0.000000,133.000000) scale(0.100000,-0.100000)"
fill="#000000" stroke="none">
<path d="M1580 1245 l0 -84 73 -3 72 -3 3 -147 c1 -82 0 -148 -3 -148 -3 0
-23 18 -46 40 -133 129 -414 99 -537 -57 -69 -88 -112 -222 -112 -349 0 -147
63 -309 152 -389 95 -85 239 -115 368 -76 63 19 82 31 132 81 l58 58 0 -29 c0
-34 16 -68 39 -86 11 -8 61 -12 154 -13 l137 0 0 80 0 80 -48 0 c-26 0 -53 5
-60 12 -9 9 -12 148 -12 565 l0 553 -185 0 -185 0 0 -85z m23 -482 c141 -83
173 -361 56 -488 -84 -91 -220 -99 -309 -19 -52 47 -82 121 -88 215 -9 158 54
270 178 310 38 13 127 3 163 -18z"/>
<path d="M5230 1245 l0 -85 70 0 70 0 0 -480 0 -480 -65 0 -65 0 0 -80 0 -80
230 0 230 0 0 79 0 80 -47 3 -48 3 -3 118 -3 117 54 0 c29 0 60 -6 69 -12 8
-7 59 -90 112 -185 53 -95 106 -179 119 -188 16 -11 50 -15 144 -15 l123 0 0
80 0 80 -34 0 c-67 0 -79 11 -161 157 -43 76 -92 151 -107 167 l-28 28 71 87
c132 158 136 161 196 161 l53 0 0 80 0 80 -220 0 -220 0 0 -80 0 -80 50 0 c28
0 50 -3 50 -8 0 -4 -32 -47 -71 -95 l-72 -88 -61 3 -61 3 -3 358 -2 357 -185
0 -185 0 0 -85z"/>
<path d="M7445 953 c3 -208 8 -415 11 -460 l6 -83 94 0 c52 0 95 1 95 3 1 1 7
208 13 460 l11 457 -118 0 -118 0 6 -377z"/>
<path d="M356 965 c-214 -54 -346 -232 -346 -465 0 -242 147 -426 378 -476 86
-18 142 -18 238 1 81 15 219 77 237 106 8 12 0 35 -33 93 -38 70 -44 76 -59
62 -9 -8 -46 -29 -82 -46 -87 -40 -173 -49 -255 -25 -83 24 -155 96 -179 178
-10 34 -13 63 -8 68 5 5 150 10 323 11 l315 3 3 58 c4 85 -30 210 -76 277 -45
66 -117 122 -186 145 -71 23 -197 28 -270 10z m201 -183 c52 -28 93 -98 93
-158 l0 -24 -200 0 c-220 0 -214 -2 -187 63 20 46 64 95 106 117 47 25 144 26
188 2z"/>
<path d="M3999 964 c-61 -18 -139 -89 -175 -159 l-29 -55 -5 80 c-9 122 -12
124 -205 128 l-155 3 0 -80 0 -81 54 0 c93 0 86 26 86 -306 l0 -294 -65 0 -65
0 0 -80 0 -80 245 0 245 0 0 80 0 80 -66 0 -66 0 4 162 c4 141 8 171 28 220
42 105 126 168 234 174 l61 3 3 102 c2 75 -1 105 -10 111 -19 11 -67 9 -119
-8z"/>
<path d="M4576 964 c-212 -51 -346 -231 -346 -466 0 -310 255 -523 575 -480
90 12 210 56 260 96 l30 24 -18 38 c-10 22 -30 58 -44 82 -23 40 -26 42 -42
28 -9 -8 -46 -29 -82 -46 -86 -40 -173 -49 -253 -26 -81 24 -158 100 -181 180
-9 30 -14 60 -10 66 4 6 121 10 326 10 l319 0 0 58 c0 177 -73 325 -195 396
-88 52 -224 68 -339 40z m196 -174 c3 0 20 -14 38 -31 35 -36 60 -89 60 -130
l0 -29 -200 0 c-220 0 -213 -3 -185 63 42 100 144 157 245 135 19 -4 38 -8 42
-8z"/>
<path d="M6640 965 c-76 -15 -156 -45 -204 -77 l-35 -23 42 -76 41 -77 55 29
c198 102 381 58 381 -92 l0 -36 -102 -7 c-235 -16 -383 -77 -446 -185 -24 -40
-27 -57 -27 -131 0 -96 18 -140 77 -197 131 -126 388 -99 486 50 l27 41 3 -35
c4 -52 21 -85 50 -100 16 -8 77 -14 155 -17 l127 -4 0 86 0 86 -48 0 c-26 0
-53 5 -60 12 -9 9 -12 71 -12 218 0 113 -5 234 -10 269 -18 109 -74 192 -160
236 -81 42 -220 54 -340 30z m277 -555 c-7 -77 -49 -154 -106 -195 -37 -26
-52 -30 -107 -30 -58 0 -66 3 -95 32 -41 41 -50 112 -21 159 36 57 134 90 271
93 l64 1 -6 -60z"/>
<path d="M2170 880 l0 -79 68 -3 67 -3 6 -275 c5 -257 7 -279 28 -334 33 -83
90 -137 167 -159 171 -48 333 12 436 163 17 25 17 24 17 -38 1 -107 43 -127
246 -120 l90 3 3 83 3 82 -54 0 c-29 0 -58 5 -65 12 -9 9 -12 107 -12 380 l0
368 -180 0 -180 0 0 -80 0 -80 66 0 66 0 -4 -182 c-3 -162 -6 -189 -25 -230
-52 -114 -128 -172 -224 -173 -70 0 -105 18 -132 70 -20 38 -22 56 -25 358
l-4 317 -179 0 -179 0 0 -80z"/>
<path d="M7450 140 l0 -111 108 3 107 3 0 105 0 105 -107 3 -108 3 0 -111z"/>
</g>
</svg>
